<?xml version="1.0" ?><svg id="Layer_1" style="enable-background:new 0 0 1024 1024;" version="1.1" viewBox="0 0 1024 1024" xml:space="preserve" xmlns="http://www.w3.org/2000/svg" xmlns:xlink="http://www.w3.org/1999/xlink"><g id="XMLID_2273_"><polygon id="XMLID_23_" points="455.5,749.3 568.5,749.3 568.5,399.1 725.5,399.1 512,119.7 298.5,399.1 455.5,399.1  "/><g id="XMLID_18_"><path d="M455.5,764.3c33,0,66,0,99,0c4.7,0,9.4,0,14.1,0c8.1,0,15-6.9,15-15c0-11.6,0-23.1,0-34.7    c0-28,0-55.9,0-83.9c0-33.7,0-67.3,0-101c0-29.1,0-58.2,0-87.3c0-14.1,0.8-28.5,0-42.6c0-0.2,0-0.4,0-0.6c-5,5-10,10-15,15    c45.8,0,91.7,0,137.5,0c6.5,0,13,0,19.5,0c10.3,0,20.1-13.2,13-22.6c-7.1-9.3-14.1-18.5-21.2-27.8c-17-22.2-34-44.4-50.9-66.7    c-20.5-26.9-41.1-53.8-61.6-80.7c-17.8-23.3-35.6-46.5-53.3-69.8c-8.7-11.3-17.3-22.7-26-34c-0.1-0.2-0.3-0.3-0.4-0.5    c-7.3-9.5-18.6-9.5-25.9,0c-7.1,9.3-14.1,18.5-21.2,27.8c-17,22.2-34,44.4-50.9,66.7c-20.5,26.9-41.1,53.8-61.6,80.7    c-17.8,23.3-35.6,46.5-53.3,69.8c-8.6,11.3-18.1,22.2-26,34c-0.1,0.2-0.3,0.3-0.4,0.5c-7.2,9.4,2.6,22.6,13,22.6    c45.8,0,91.7,0,137.5,0c6.5,0,13,0,19.5,0c-5-5-10-10-15-15c0,11.6,0,23.1,0,34.7c0,28,0,55.9,0,83.9c0,33.7,0,67.3,0,101    c0,29.1,0,58.2,0,87.3c0,14.2-0.5,28.4,0,42.6c0,0.2,0,0.4,0,0.6C440.5,757.1,447.4,764.6,455.5,764.3c8.1-0.4,15-6.6,15-15    c0-11.6,0-23.1,0-34.7c0-28,0-55.9,0-83.9c0-33.7,0-67.3,0-101c0-29.1,0-58.2,0-87.3c0-14.2,0.5-28.4,0-42.6c0-0.2,0-0.4,0-0.6    c0-8.1-6.9-15-15-15c-45.8,0-91.7,0-137.5,0c-6.5,0-13,0-19.5,0c4.3,7.5,8.6,15,13,22.6c7.1-9.3,14.1-18.5,21.2-27.8    c17-22.2,34-44.4,50.9-66.7c20.5-26.9,41.1-53.8,61.6-80.7c17.8-23.3,35.6-46.5,53.3-69.8c8.6-11.3,18-22.3,26-34    c0.1-0.2,0.3-0.3,0.4-0.5c-8.6,0-17.3,0-25.9,0c7.1,9.3,14.1,18.5,21.2,27.8c17,22.2,34,44.4,50.9,66.7    c20.5,26.9,41.1,53.8,61.6,80.7c17.8,23.3,35.6,46.5,53.3,69.8c8.6,11.3,16.7,23.3,26,34c0.1,0.2,0.3,0.3,0.4,0.5    c4.3-7.5,8.6-15,13-22.6c-45.8,0-91.7,0-137.5,0c-6.5,0-13,0-19.5,0c-8.1,0-15,6.9-15,15c0,11.6,0,23.1,0,34.7c0,28,0,55.9,0,83.9    c0,33.7,0,67.3,0,101c0,29.1,0,58.2,0,87.3c0,14.1-0.8,28.5,0,42.6c0,0.2,0,0.4,0,0.6c5-5,10-10,15-15c-33,0-66,0-99,0    c-4.7,0-9.4,0-14.1,0c-7.8,0-15.4,6.9-15,15C440.8,757.4,447.1,764.3,455.5,764.3z" id="XMLID_22_"/></g></g><g id="XMLID_2252_"><g id="XMLID_13_"><path d="M893,734.4c0,39.1,0,78.2,0,117.3c0,6.5,0.4,13.3-0.4,19.8c0.4-2.7,0.7-5.3,1.1-8    c-0.5,3.1-1.3,6.1-2.5,9.1c1-2.4,2-4.8,3-7.2c-0.9,2-1.9,4-3,5.9c-1.9,2.9-3.6,2.7,1.6-1.8c-0.8,0.7-1.5,1.6-2.2,2.4    c-0.3,0.3-2.3,2.3-2.4,2.2c-0.2-0.1,7.2-4.8,2.4-2c-2.1,1.3-4.1,2.4-6.4,3.4c2.4-1,4.8-2,7.2-3c-3,1.2-5.9,2-9.1,2.5    c2.7-0.4,5.3-0.7,8-1.1c-8,1-16.4,0.4-24.4,0.4c-18,0-35.9,0-53.9,0c-26.8,0-53.6,0-80.4,0c-32.7,0-65.3,0-98,0c-36,0-72,0-108,0    c-36.3,0-72.7,0-109,0c-33.9,0-67.7,0-101.6,0c-28.5,0-57,0-85.6,0c-20.3,0-40.6,0-60.8,0c-9.4,0-18.8,0-28.2,0    c-2.2,0-4.3-0.1-6.5-0.4c2.7,0.4,5.3,0.7,8,1.1c-3.1-0.5-6.1-1.3-9.1-2.5c2.4,1,4.8,2,7.2,3c-2-0.9-4-1.9-5.9-3    c-2.9-1.9-2.7-3.6,1.8,1.6c-0.7-0.8-1.6-1.5-2.4-2.2c-0.3-0.3-2.3-2.3-2.2-2.4c0.1-0.2,4.8,7.2,2,2.4c-1.3-2.1-2.4-4.1-3.4-6.4    c1,2.4,2,4.8,3,7.2c-1.2-3-2-5.9-2.5-9.1c0.4,2.7,0.7,5.3,1.1,8c-0.7-5.5-0.4-11.2-0.4-16.7c0-10.4,0-20.8,0-31.1    c0-24.1,0-48.2,0-72.3c0-5.6,0-11.3,0-16.9c0-15.7-13.8-30.7-30-30c-16.3,0.7-30,13.2-30,30c0,39.2,0,78.4,0,117.6    c0,4.6-0.1,9.3,0,13.9c0.5,29.4,18.6,54,45.8,64.4c9.8,3.8,20,4,30.3,4c23.5,0,46.9,0,70.4,0c41.2,0,82.3,0,123.5,0    c50.7,0,101.4,0,152.1,0c51.7,0,103.4,0,155.1,0c44.2,0,88.4,0,132.6,0c28.5,0,57,0,85.5,0c5.8,0,11.5,0,17.3,0    c38.1-0.1,69-30.2,69.6-68.4c0.6-39.6,0-79.2,0-118.8c0-4.2,0-8.4,0-12.7c0-15.7-13.8-30.7-30-30C906.7,705.1,893,717.6,893,734.4    L893,734.4z" id="XMLID_17_"/></g></g></svg>