<?xml version="1.0" encoding="UTF-8" standalone="no"?>
<svg
   xmlns:dc="http://purl.org/dc/elements/1.1/"
   xmlns:cc="http://creativecommons.org/ns#"
   xmlns:rdf="http://www.w3.org/1999/02/22-rdf-syntax-ns#"
   xmlns:svg="http://www.w3.org/2000/svg"
   xmlns="http://www.w3.org/2000/svg"
   viewBox="0 0 1600 1600"
   height="1600"
   width="1600"
   xml:space="preserve"
   id="svg2"
   version="1.1"><metadata
     id="metadata8"><rdf:RDF><cc:Work
         rdf:about=""><dc:format>image/svg+xml</dc:format><dc:type
           rdf:resource="http://purl.org/dc/dcmitype/StillImage" /></cc:Work></rdf:RDF></metadata><defs
     id="defs6"><clipPath
       id="clipPath28"
       clipPathUnits="userSpaceOnUse"><path
         id="path26"
         d="m 4571.2,4528.05 c 0,0 392.55,-1729.13 2783.1,-1729.13 0,477.09 0,1969.9 0,1969.9 z" /></clipPath><linearGradient
       id="linearGradient34"
       spreadMethod="pad"
       gradientTransform="matrix(5194.17,0,0,-5194.17,4571.2,3783.87)"
       gradientUnits="userSpaceOnUse"
       y2="0"
       x2="1"
       y1="0"
       x1="0"><stop
         id="stop30"
         offset="0"
         style="stop-opacity:1;stop-color:#ffffff" /><stop
         id="stop32"
         offset="1"
         style="stop-opacity:1;stop-color:#c8cfe1" /></linearGradient></defs><g
     transform="matrix(1.3333333,0,0,-1.3333333,0,1600)"
     id="g10"><g
       transform="scale(0.1)"
       id="g12"><path
         id="path14"
         style="fill:#c8cfe1;fill-opacity:1;fill-rule:nonzero;stroke:none"
         d="M 11027.3,6000 C 11027.3,3223.48 8776.52,972.699 6000,972.699 3223.48,972.699 972.668,3223.48 972.668,6000 c 0,2776.52 2250.812,5027.3 5027.332,5027.3 2776.52,0 5027.3,-2250.78 5027.3,-5027.3" /><path
         id="path16"
         style="fill:#ffffff;fill-opacity:1;fill-rule:nonzero;stroke:none"
         d="m 7686.83,6502.73 c 0,0 92.34,205.2 277.02,123.12 184.68,-82.08 -53.87,-772.05 -138.51,-918.26 -84.64,-146.2 -269.32,-92.33 -269.32,-92.33 l 130.81,887.47" /><path
         id="path18"
         style="fill:#868b93;fill-opacity:1;fill-rule:nonzero;stroke:none"
         d="M 9368.05,2268.1 7354.3,2798.92 6000,2614.25 4571.2,2798.92 2631.95,2268.1 C 3523.35,1463.1 4704.32,972.699 6000,972.699 c 1295.69,0 2476.65,490.401 3368.05,1295.401" /><path
         id="path20"
         style="fill:#ffffff;fill-opacity:1;fill-rule:nonzero;stroke:none"
         d="M 5962.75,4604.66 4571.2,4768.82 v -1969.9 c 0,0 731.13,-425.78 1391.55,-425.78 660.42,0 1391.55,425.78 1391.55,425.78 v 1969.9 L 5962.75,4604.66" /><g
         id="g22"><g
           clip-path="url(#clipPath28)"
           id="g24"><path
             id="path36"
             style="fill:url(#linearGradient34);fill-opacity:1;fill-rule:nonzero;stroke:none"
             d="m 4571.2,4528.05 c 0,0 392.55,-1729.13 2783.1,-1729.13 0,477.09 0,1969.9 0,1969.9 L 4571.2,4528.05" /></g></g><path
         id="path38"
         style="fill:#ffffff;fill-opacity:1;fill-rule:nonzero;stroke:none"
         d="m 4238.66,6502.73 c 0,0 -92.33,205.2 -277.01,123.12 -184.68,-82.08 53.86,-772.05 138.51,-918.26 84.64,-146.2 269.32,-92.33 269.32,-92.33 l -130.82,887.47" /><path
         id="path40"
         style="fill:#ffffff;fill-opacity:1;fill-rule:nonzero;stroke:none"
         d="m 7686.28,5586.73 c 21.3,390.74 58.23,885.14 84.43,1906.08 32,1246.57 -1135.97,1723.66 -1807.96,1723.66 -671.99,0 -1839.97,-477.09 -1807.97,-1723.66 26.21,-1020.93 63.14,-1515.33 84.44,-1906.06 v 0 c -3.67,-51.58 22.9,-725.59 69.07,-817.93 46.17,-92.34 442.14,-473.79 442.14,-473.79 0,0 819.83,-834.35 916.01,-865.12 96.19,-30.78 296.31,-26.94 296.31,-26.94 0,0 200.12,-3.84 296.31,26.94 96.19,30.77 916.01,865.12 916.01,865.12 0,0 395.97,381.45 442.14,473.79 46.17,92.34 72.74,766.35 69.07,817.93 v -0.02" /><path
         id="path42"
         style="fill:#ffffff;fill-opacity:1;fill-rule:nonzero;stroke:none"
         d="m 6115.91,2394.43 7.21,65.92 C 5303.67,2557.82 4571.2,2798.92 4571.2,2798.92 L 5962.75,972.801 7354.3,2798.92 c 0,0 -501.72,-287.85 -1238.39,-404.49" /><path
         id="path44"
         style="fill:#6d727c;fill-opacity:1;fill-rule:nonzero;stroke:none"
         d="m 8600.1,7851.39 c -97.26,416.81 -611.32,1222.63 -1271.26,1403.25 0,0 382.07,111.14 771.09,0 -527.95,361.23 -1840.87,769.76 -2879.68,485.08 -531.61,-145.7 -746.4,-484.78 -968.82,-1096.4 -277.75,26.81 -485.52,-611.87 -311.77,-1501.21 215.92,-1105.17 285.83,-1317.29 285.83,-1317.29 0,0 2.92,102.57 2.92,880.6 v 0 l 576.32,1413.24 851.56,-369.35 -30.21,161.06 368.79,-161.06 c 0,0 203.64,96 344.44,159.59 l -139.24,-177.55 c 186.26,81.41 966.99,387.31 966.99,387.31 l 515.56,-1413.24 v 0 c 13.89,-208.4 49.71,-164.07 18.93,-854.32 147.7,1004.9 217.04,1103.07 288.86,1595.54 0,0 161.6,-253.93 203.92,-515.56 119.27,227 280.73,971.99 30.64,1286.55 0,0 263.98,-130.05 375.13,-366.24" /><path
         id="path46"
         style="fill:#cbd0d8;fill-opacity:1;fill-rule:nonzero;stroke:none"
         d="M 7354.3,2798.92 7949.37,1885.8 5962.75,972.801 Z" /><path
         id="path48"
         style="fill:#cbd0d8;fill-opacity:1;fill-rule:nonzero;stroke:none"
         d="M 4571.19,2798.92 3976.12,1885.8 5962.75,972.801 Z" /></g></g></svg>