<?xml version="1.0" ?><svg id="Layer_1" style="enable-background:new 0 0 1024 1024;" version="1.1" viewBox="0 0 1024 1024" xml:space="preserve" xmlns="http://www.w3.org/2000/svg" xmlns:xlink="http://www.w3.org/1999/xlink"><g id="XMLID_1658_"><g id="XMLID_60_"><path d="M542,922.8c0-19.7,0-39.3,0-59c0-31.4,0-62.8,0-94.2c0-7.3,0-14.5,0-21.8c0-15.7-13.8-30.7-30-30    c-16.3,0.7-30,13.2-30,30c0,19.7,0,39.3,0,59c0,31.4,0,62.8,0,94.2c0,7.3,0,14.5,0,21.8c0,15.7,13.8,30.7,30,30    C528.3,952.1,542,939.6,542,922.8L542,922.8z" id="XMLID_64_"/></g></g><g id="XMLID_1657_"><g id="XMLID_54_"><path d="M542,636.2c0-17.8,0-35.6,0-53.4c0-42.7,0-85.4,0-128.1c0-51.3,0-102.6,0-153.9c0-44.6,0-89.2,0-133.9    c0-21.6,0.4-43.3,0-65c0-0.3,0-0.6,0-0.9c0-15.7-13.8-30.7-30-30c-16.3,0.7-30,13.2-30,30c0,17.8,0,35.6,0,53.4    c0,42.7,0,85.4,0,128.1c0,51.3,0,102.6,0,153.9c0,44.6,0,89.2,0,133.9c0,21.6-0.4,43.3,0,65c0,0.3,0,0.6,0,0.9    c0,15.7,13.8,30.7,30,30C528.3,665.4,542,653,542,636.2L542,636.2z" id="XMLID_58_"/></g></g><g id="XMLID_1797_"><path d="M597,652.3v79.5c0,8.9-7.2,16.1-16.1,16.1H443.1c-8.9,0-16.1-7.2-16.1-16.1v-79.5c0-8.9,7.2-16.1,16.1-16.1   h137.8C589.8,636.2,597,643.4,597,652.3z" id="XMLID_67_"/><g id="XMLID_52_"><path d="M582,652.3c0,16.2,0,32.4,0,48.6c0,8.9,0,17.8,0,26.8c0,1.8,0.2,3.7-0.1,5.5c0.3-2.4-0.1,0-0.3,0    c0.1-0.2,0.1-0.4,0.2-0.6c0.4-1,0.3-0.8-0.5,0.5c0.1-0.2,0.2-0.3,0.4-0.5c0.7-0.8,0.5-0.7-0.5,0.4c0.2-0.1,0.3-0.2,0.5-0.4    c0.9-0.6,0.6-0.5-0.6,0.3c-0.2-0.1,2.3-0.1-0.1,0c3,0,0.5,0-0.1,0c-0.1,0-0.2,0-0.2,0c-35.4-0.1-70.8,0-106.2,0    c-7.8,0-15.7,0-23.5,0c-2.1,0-4.3,0-6.4,0c-0.4,0-0.8,0-1.3,0c-0.1,0-0.1,0-0.2,0c-0.6,0-3,0-0.1,0c-0.4-0.1-0.8-0.3-1.3-0.4    c1.4,0.6,1.6,0.6,0.6,0.1c-0.2-0.1-0.4-0.2-0.6-0.3c1.1,0.9,1.3,1,0.5,0.3c-0.2-0.2-0.3-0.3-0.5-0.5c1,1.4,1,1.3,0.1-0.1    c0.1,0.2,0.1,0.4,0.2,0.6c0.4,1,0.3,0.8-0.2-0.7c0,0,0,3.7,0-0.1c0-0.4,0-0.8,0-1.3c0-2.8,0-5.5,0-8.3c0-10.2,0-20.4,0-30.7    c0-10.1,0-20.2,0-30.3c0-2.6,0-5.3,0-7.9c0-0.6,0-1.1,0-1.7c0-0.2,0-0.5,0-0.7c-0.2,1.5-0.2,1.7,0.1,0.7c0.1-0.2,0.1-0.4,0.2-0.6    c-0.6,1.4-0.6,1.6-0.1,0.6c0.1-0.2,0.2-0.4,0.3-0.6c-0.9,1.1-1,1.3-0.3,0.5c0.8-0.7,0.6-0.6-0.5,0.3c0.4-0.2,0.7-0.5,1.1-0.7    c-0.4,0.1-0.8,0.3-1.2,0.4c1.5-0.3,1.7-0.5,0.6-0.4c-1.5,0.1-0.1,0,0.7,0c0.1,0,0.1,0,0.2,0c0.5,0,1,0,1.5,0c2.2,0,4.4,0,6.7,0    c8,0,15.9,0,23.9,0c35.1,0,70.3-0.2,105.4,0c0.1,0,0.1,0,0.2,0c3.8,0,0.1,0,0.1,0c0.4,0.1,0.8,0.3,1.3,0.4    c-0.4-0.1-0.8-0.3-1.2-0.4c0.4,0.2,0.7,0.5,1.1,0.7c-0.3-0.2-0.7-0.5-1-0.7c0.3,0.3,0.6,0.6,0.9,0.9c-0.8-1.2-1-1.3-0.4-0.4    c1.6,1.3-0.9-1.8,0.1,0C582.8,653.3,581.8,648.5,582,652.3c0.3,7.8,6.7,15.4,15,15c7.8-0.4,15.4-6.6,15-15    c-0.8-18-14.5-30.9-32.4-31.1c-6.1,0-12.1,0-18.2,0c-22.6,0-45.1,0-67.7,0c-16.5,0-33-0.2-49.5,0c-17.8,0.2-31.6,13.2-32.2,31.1    c-0.2,6.1,0,12.3,0,18.4c0,19.9-0.2,39.9,0,59.8c0.2,17.9,13.1,31.7,31.2,32.4c4.3,0.1,8.7,0,13.1,0c40.4,0,80.7,0,121.1,0    c12.2,0,23.8-4.1,30.3-15.2c5-8.4,4.4-17.6,4.4-26.8c0-21.2,0-42.5,0-63.7c0-1.6,0-3.2,0-4.8c0-7.8-6.9-15.4-15-15    C588.9,637.6,582,643.8,582,652.3z" id="XMLID_66_"/></g></g><g id="XMLID_1792_"><g id="XMLID_43_"><path d="M212,922.8c0-17.8,0-35.6,0-53.4c0-42.7,0-85.4,0-128.1c0-51.3,0-102.6,0-153.9c0-44.6,0-89.2,0-133.9    c0-21.6,0.4-43.3,0-65c0-0.3,0-0.6,0-0.9c0-15.7-13.8-30.7-30-30c-16.3,0.7-30,13.2-30,30c0,17.8,0,35.6,0,53.4    c0,42.7,0,85.4,0,128.1c0,51.3,0,102.6,0,153.9c0,44.6,0,89.2,0,133.9c0,21.6-0.4,43.3,0,65c0,0.3,0,0.6,0,0.9    c0,15.7,13.8,30.7,30,30C198.3,952.1,212,939.6,212,922.8L212,922.8z" id="XMLID_47_"/></g></g><g id="XMLID_1791_"><g id="XMLID_37_"><path d="M212,276.2c0-19.7,0-39.3,0-59c0-31.4,0-62.8,0-94.2c0-7.3,0-14.5,0-21.8c0-15.7-13.8-30.7-30-30    c-16.3,0.7-30,13.2-30,30c0,19.7,0,39.3,0,59c0,31.4,0,62.8,0,94.2c0,7.3,0,14.5,0,21.8c0,15.7,13.8,30.7,30,30    C198.3,305.4,212,293,212,276.2L212,276.2z" id="XMLID_41_"/></g></g><g id="XMLID_1796_"><path d="M267,292.3v79.5c0,8.9-7.2,16.1-16.1,16.1H113.1c-8.9,0-16.1-7.2-16.1-16.1v-79.5c0-8.9,7.2-16.1,16.1-16.1   h137.8C259.8,276.2,267,283.4,267,292.3z" id="XMLID_51_"/><g id="XMLID_36_"><path d="M252,292.3c0,16.2,0,32.4,0,48.6c0,8.9,0,17.8,0,26.8c0,1.8,0.2,3.7-0.1,5.5c0.3-2.4-0.1,0-0.3,0    c0.1-0.2,0.1-0.4,0.2-0.6c0.4-1,0.3-0.8-0.5,0.5c0.1-0.2,0.2-0.3,0.4-0.5c0.7-0.8,0.5-0.7-0.5,0.4c0.2-0.1,0.3-0.2,0.5-0.4    c0.9-0.6,0.6-0.5-0.6,0.3c-0.2-0.1,2.3-0.1-0.1,0c3,0,0.5,0-0.1,0c-0.1,0-0.2,0-0.2,0c-35.4-0.1-70.8,0-106.2,0    c-7.8,0-15.7,0-23.5,0c-2.1,0-4.3,0-6.4,0c-0.4,0-0.8,0-1.3,0c-0.1,0-0.1,0-0.2,0c-0.6,0-3,0-0.1,0c-0.4-0.1-0.8-0.3-1.3-0.4    c1.4,0.6,1.6,0.6,0.6,0.1c-0.2-0.1-0.4-0.2-0.6-0.3c1.1,0.9,1.3,1,0.5,0.3c-0.2-0.2-0.3-0.3-0.5-0.5c1,1.4,1,1.3,0.1-0.1    c0.1,0.2,0.1,0.4,0.2,0.6c0.4,1,0.3,0.8-0.2-0.7c0,0,0,3.7,0-0.1c0-0.4,0-0.8,0-1.3c0-2.8,0-5.5,0-8.3c0-10.2,0-20.4,0-30.7    c0-10.1,0-20.2,0-30.3c0-2.6,0-5.3,0-7.9c0-0.6,0-1.1,0-1.7c0-0.2,0-0.5,0-0.7c-0.2,1.5-0.2,1.7,0.1,0.7c0.1-0.2,0.1-0.4,0.2-0.6    c-0.6,1.4-0.6,1.6-0.1,0.6c0.1-0.2,0.2-0.4,0.3-0.6c-0.9,1.1-1,1.3-0.3,0.5c0.8-0.7,0.6-0.6-0.5,0.3c0.4-0.2,0.7-0.5,1.1-0.7    c-0.4,0.1-0.8,0.3-1.2,0.4c1.5-0.3,1.7-0.5,0.6-0.4c-1.5,0.1-0.1,0,0.7,0c0.1,0,0.1,0,0.2,0c0.5,0,1,0,1.5,0c2.2,0,4.4,0,6.7,0    c8,0,15.9,0,23.9,0c35.1,0,70.3-0.2,105.4,0c0.1,0,0.1,0,0.2,0c3.8,0,0.1,0,0.1,0c0.4,0.1,0.8,0.3,1.3,0.4    c-0.4-0.1-0.8-0.3-1.2-0.4c0.4,0.2,0.7,0.5,1.1,0.7c-0.3-0.2-0.7-0.5-1-0.7c0.3,0.3,0.6,0.6,0.9,0.9c-0.8-1.2-1-1.3-0.4-0.4    c1.6,1.3-0.9-1.8,0.1,0C252.8,293.3,251.8,288.5,252,292.3c0.3,7.8,6.7,15.4,15,15c7.8-0.4,15.4-6.6,15-15    c-0.8-18-14.5-30.9-32.4-31.1c-6.1,0-12.1,0-18.2,0c-22.6,0-45.1,0-67.7,0c-16.5,0-33-0.2-49.5,0c-17.8,0.2-31.6,13.2-32.2,31.1    c-0.2,6.1,0,12.3,0,18.4c0,19.9-0.2,39.9,0,59.8c0.2,17.9,13.1,31.7,31.2,32.4c4.3,0.1,8.7,0,13.1,0c40.4,0,80.7,0,121.1,0    c12.2,0,23.8-4.1,30.3-15.2c5-8.4,4.4-17.6,4.4-26.8c0-21.2,0-42.5,0-63.7c0-1.6,0-3.2,0-4.8c0-7.8-6.9-15.4-15-15    C258.9,277.6,252,283.8,252,292.3z" id="XMLID_50_"/></g></g><g id="XMLID_1656_"><g id="XMLID_26_"><path d="M872,922.8c0-11.8,0-23.5,0-35.3c0-28.2,0-56.5,0-84.7c0-34.2,0-68.3,0-102.5c0-29.6,0-59.1,0-88.7    c0-14.4,0.3-28.8,0-43.2c0-0.2,0-0.4,0-0.6c0-15.7-13.8-30.7-30-30c-16.3,0.7-30,13.2-30,30c0,11.8,0,23.5,0,35.3    c0,28.2,0,56.5,0,84.7c0,34.2,0,68.3,0,102.5c0,29.6,0,59.1,0,88.7c0,14.4-0.3,28.8,0,43.2c0,0.2,0,0.4,0,0.6    c0,15.7,13.8,30.7,30,30C858.3,952.1,872,939.6,872,922.8L872,922.8z" id="XMLID_35_"/></g></g><g id="XMLID_1655_"><g id="XMLID_19_"><path d="M872,456.2c0-11.8,0-23.5,0-35.3c0-28.2,0-56.5,0-84.7c0-34.2,0-68.3,0-102.5c0-29.6,0-59.1,0-88.7    c0-14.4,0.3-28.8,0-43.2c0-0.2,0-0.4,0-0.6c0-15.7-13.8-30.7-30-30c-16.3,0.7-30,13.2-30,30c0,11.8,0,23.5,0,35.3    c0,28.2,0,56.5,0,84.7c0,34.2,0,68.3,0,102.5c0,29.6,0,59.1,0,88.7c0,14.4-0.3,28.8,0,43.2c0,0.2,0,0.4,0,0.6    c0,15.7,13.8,30.7,30,30C858.3,485.4,872,473,872,456.2L872,456.2z" id="XMLID_24_"/></g></g><g id="XMLID_1798_"><path d="M927,472.3v79.5c0,8.9-7.2,16.1-16.1,16.1H773.1c-8.9,0-16.1-7.2-16.1-16.1v-79.5c0-8.9,7.2-16.1,16.1-16.1   h137.8C919.8,456.2,927,463.4,927,472.3z" id="XMLID_34_"/><g id="XMLID_23_"><path d="M912,472.3c0,16.2,0,32.4,0,48.6c0,8.9,0,17.8,0,26.8c0,1.8,0.2,3.7-0.1,5.5c0.3-2.4-0.1,0-0.3,0    c0.1-0.2,0.1-0.4,0.2-0.6c0.4-1,0.3-0.8-0.5,0.5c0.1-0.2,0.2-0.3,0.4-0.5c0.7-0.8,0.5-0.7-0.5,0.4c0.2-0.1,0.3-0.2,0.5-0.4    c0.9-0.6,0.6-0.5-0.6,0.3c-0.2-0.1,2.3-0.1-0.1,0c3,0,0.5,0-0.1,0c-0.1,0-0.2,0-0.2,0c-35.4-0.1-70.8,0-106.2,0    c-7.8,0-15.7,0-23.5,0c-2.1,0-4.3,0-6.4,0c-0.4,0-0.8,0-1.3,0c-0.1,0-0.1,0-0.2,0c-0.6,0-3,0-0.1,0c-0.4-0.1-0.8-0.3-1.3-0.4    c1.4,0.6,1.6,0.6,0.6,0.1c-0.2-0.1-0.4-0.2-0.6-0.3c1.1,0.9,1.3,1,0.5,0.3c-0.2-0.2-0.3-0.3-0.5-0.5c1,1.4,1,1.3,0.1-0.1    c0.1,0.2,0.1,0.4,0.2,0.6c0.4,1,0.3,0.8-0.2-0.7c0,0,0,3.7,0-0.1c0-0.4,0-0.8,0-1.3c0-2.8,0-5.5,0-8.3c0-10.2,0-20.4,0-30.7    c0-10.1,0-20.2,0-30.3c0-2.6,0-5.3,0-7.9c0-0.6,0-1.1,0-1.7c0-0.2,0-0.5,0-0.7c-0.2,1.5-0.2,1.7,0.1,0.7c0.1-0.2,0.1-0.4,0.2-0.6    c-0.6,1.4-0.6,1.6-0.1,0.6c0.1-0.2,0.2-0.4,0.3-0.6c-0.9,1.1-1,1.3-0.3,0.5c0.8-0.7,0.6-0.6-0.5,0.3c0.4-0.2,0.7-0.5,1.1-0.7    c-0.4,0.1-0.8,0.3-1.2,0.4c1.5-0.3,1.7-0.5,0.6-0.4c-1.5,0.1-0.1,0,0.7,0c0.1,0,0.1,0,0.2,0c0.5,0,1,0,1.5,0c2.2,0,4.4,0,6.7,0    c8,0,15.9,0,23.9,0c35.1,0,70.3-0.2,105.4,0c0.1,0,0.1,0,0.2,0c3.8,0,0.1,0,0.1,0c0.4,0.1,0.8,0.3,1.3,0.4    c-0.4-0.1-0.8-0.3-1.2-0.4c0.4,0.2,0.7,0.5,1.1,0.7c-0.3-0.2-0.7-0.5-1-0.7c0.3,0.3,0.6,0.6,0.9,0.9c-0.8-1.2-1-1.3-0.4-0.4    c1.6,1.3-0.9-1.8,0.1,0C912.8,473.3,911.8,468.5,912,472.3c0.3,7.8,6.7,15.4,15,15c7.8-0.4,15.4-6.6,15-15    c-0.8-18-14.5-30.9-32.4-31.1c-6.1,0-12.1,0-18.2,0c-22.6,0-45.1,0-67.7,0c-16.5,0-33-0.2-49.5,0c-17.8,0.2-31.6,13.2-32.2,31.1    c-0.2,6.1,0,12.3,0,18.4c0,19.9-0.2,39.9,0,59.8c0.2,17.9,13.1,31.7,31.2,32.4c4.3,0.1,8.7,0,13.1,0c40.4,0,80.7,0,121.1,0    c12.2,0,23.8-4.1,30.3-15.2c5-8.4,4.4-17.6,4.4-26.8c0-21.2,0-42.5,0-63.7c0-1.6,0-3.2,0-4.8c0-7.8-6.9-15.4-15-15    C918.9,457.6,912,463.8,912,472.3z" id="XMLID_33_"/></g></g></svg>