<?xml version="1.0" ?><svg id="Layer_1" style="enable-background:new 0 0 1024 1024;" version="1.1" viewBox="0 0 1024 1024" xml:space="preserve" xmlns="http://www.w3.org/2000/svg" xmlns:xlink="http://www.w3.org/1999/xlink"><path d="M960.3,206.4c-0.7-16.3-13.2-30-30-30H691.1v-20.7c0-19.4,3.2-42.9-7.9-60c-9.5-14.5-25.3-23-42.7-23.3  c-2.6,0-5.3,0-7.9,0H399.4c-13.2,0-25.6-0.6-38.1,5.1c-17.5,8-28.2,26.4-28.5,45.3c-0.1,5.6,0,11.3,0,17v36.6H127.7  c-10.9,0-21.7-0.1-32.6,0c-0.5,0-0.9,0-1.4,0c-15.7,0-30.7,13.8-30,30c0.7,16.3,13.2,30,30,30h65.5v641.8c0,16.5,1.9,32.6,12.2,46.5  c12.5,16.8,31.4,26.6,52.4,26.8c2.4,0,4.8,0,7.2,0h569.5c0.2,0,0.5,0,0.7,0c28.2-0.7,53.5-19.4,61.3-46.8c1.9-6.8,2.4-13.9,2.4-20.9  V236.4h31.5c10.9,0,21.7,0.1,32.6,0c0.5,0,0.9,0,1.4,0C946,236.4,961.1,222.6,960.3,206.4z M358.6,411.5v372.4  c0,16.8-13.8,29.3-30,30c-16.2,0.7-30-14.3-30-30v-0.7c-0.4-17.2,0-34.4,0-51.6V359.1c0-16.8,13.7-29.3,30-30  c16.2-0.7,30,14.3,30,30c0,0.3,0,0.5,0,0.7C358.9,377,358.6,394.3,358.6,411.5z M542,411.5v372.4c0,16.8-13.8,29.3-30,30  c-16.2,0.7-30-14.3-30-30c0-0.2,0-0.5,0-0.7c-0.4-17.2,0-34.4,0-51.6V359.1c0-16.8,13.8-29.3,30-30c16.2-0.7,30,14.3,30,30  c0,0.3,0,0.5,0,0.7C542.4,377,542,394.3,542,411.5z M725.4,411.5v372.4c0,16.8-13.7,29.3-30,30c-16.2,0.7-30-14.3-30-30  c0-0.2,0-0.5,0-0.7c-0.3-17.2,0-34.4,0-51.6V359.1c0-16.8,13.8-29.3,30-30c16.2-0.7,30,14.3,30,30v0.7  C725.8,377,725.4,394.3,725.4,411.5z" id="XMLID_30_"/></svg>