<?xml version="1.0" standalone="no"?>
<!DOCTYPE svg PUBLIC "-//W3C//DTD SVG 20010904//EN"
 "http://www.w3.org/TR/2001/REC-SVG-20010904/DTD/svg10.dtd">
<svg version="1.0" xmlns="http://www.w3.org/2000/svg"
 width="512.000000pt" height="341.000000pt" viewBox="0 0 512.000000 341.000000"
 preserveAspectRatio="xMidYMid meet">

<g transform="translate(0.000000,341.000000) scale(0.100000,-0.100000)"
fill="#000000" stroke="none">
<path d="M2340 3395 c-189 -26 -343 -75 -521 -167 -260 -133 -489 -351 -621
-590 -39 -69 -47 -78 -78 -83 -564 -97 -980 -485 -1096 -1025 -26 -119 -26
-381 0 -500 53 -246 165 -457 338 -636 199 -206 452 -337 731 -378 156 -24
2993 -24 3136 -1 538 88 918 560 888 1104 -27 496 -408 919 -900 1002 l-77 13
-10 40 c-149 591 -590 1038 -1172 1187 -187 47 -425 60 -618 34z m755 -1375
l530 -530 -318 0 -317 0 0 -425 0 -425 -430 0 -430 0 0 425 0 425 -317 0 -318
0 530 530 c291 292 532 530 535 530 3 0 244 -238 535 -530z"/>
</g>
</svg>
